<svg width="256" height="256" fill="none" xmlns="http://www.w3.org/2000/svg"><path d="M73.853 16.121a6.982 6.982 0 0 0-4.276 3.487c-.969 1.84-1.301 3.294-1.495 6.462-.083 1.426-.138 35.688-.138 94.665 0 85.864.041 107.23.207 109.748.139 2.145 1.121 4.221 2.892 6.116 1.661 1.744 3.46 2.879 5.715 3.584l1.218.388 32.837.041c32.27.042 32.893.028 36.117-.249 6.213-.539 9.465-1.273 17.048-3.819 15.167-5.106 27.413-12.163 35.564-20.494 2.975-3.03 4.525-4.981 6.711-8.482 1.522-2.408 3.155-6.477 3.861-9.549.595-2.601.788-6.337.484-9.105-.401-3.75-1.799-8.04-3.764-11.651-.692-1.273-2.92-4.567-3.916-5.798-2.131-2.643-5.078-5.632-7.472-7.57-1.827-1.48-3.446-2.753-3.737-2.961-6.434-4.483-10.489-6.725-18.805-10.406-1.744-.775-6.642-2.629-9.258-3.501-1.992-.678-2.601-.941-2.421-1.079.027-.028.678-.388 1.439-.789 7.514-3.999 14.862-9.894 21.061-16.91 2.048-2.311 5.258-6.642 6.988-9.396 4.248-6.808 7.362-14.004 9.105-21.075 3.501-14.197 2.173-27.468-3.819-38.566-3.21-5.936-8.884-11.997-12.841-13.755-2.339-1.038-5.273-1.19-7.584-.387-2.131.733-3.971 2.103-5.023 3.708-.249.374-1.771 3.086-3.39 6.02-5.397 9.77-18.114 32.712-23.497 42.344a1674.64 1674.64 0 0 1-3.044 5.466c-.415.761-1.826 3.307-3.141 5.673-2.948 5.314-3.819 6.878-4.636 8.372a2305.438 2305.438 0 0 1-3.874 6.988 541.385 541.385 0 0 0-2.837 5.12c-.249.457-.734 1.329-1.066 1.937a353.08 353.08 0 0 0-1.729 3.114c-.609 1.107-1.412 2.546-1.772 3.224-.788 1.398-1.107 1.799-1.425 1.702-.124-.041-1.204-.111-2.38-.152-1.176-.055-2.366-.111-2.629-.152-.263-.028-3.128-.083-6.366-.111-5.507-.055-9.59.028-13.27.263-1.91.125-1.924.083-.29-1.149 6.351-4.787 12.578-11.43 17.103-18.224a66.788 66.788 0 0 0 1.384-2.145c.166-.263.553-.913.885-1.439.955-1.55 1.965-3.473 3.1-5.881 3.39-7.168 5.549-14.959 6.476-23.469.291-2.643.249-11.914-.069-14.46-1.121-9.134-3.556-17.007-7.514-24.355-7.901-14.696-20.55-25.226-36.892-30.748-1.965-.65-2.228-.706-3.64-.747-.995-.028-1.757.028-2.185.152Zm67.86 148.273c4.193.415 8.206 1.757 11.583 3.846 3.556 2.215 6.725 5.563 8.524 9.009.913 1.771 1.757 4.193 1.854 5.355.055.734.028.858-.194.941-.152.055-10.738.138-23.538.18-22.348.083-23.303.069-23.566-.166-.36-.332-.36-1.162-.014-3.183.706-4.054 3.737-8.344 8.109-11.485 1.426-1.024 4.553-2.629 6.324-3.238 3.252-1.121 7.431-1.605 10.918-1.259Z" fill="#fff"/></svg>