<svg width="512" height="512" fill="none" xmlns="http://www.w3.org/2000/svg"><path d="M310.477 268.185c-7.377-3.42-9.308-13.002-3.764-18.95a258.219 258.219 0 0 0 10.662-12.173c13.658-16.617 25.477-35.197 35.004-55.583 13.613-29.13 4.921-62.963-19.085-82.24-6.654-5.34-16.575-2.952-20.188 4.779l-56.627 121.176-12.646 27.062a13.228 13.228 0 0 1-11.983 7.627h-.086c-8.669 0-14.954-8.192-12.792-16.589 6.247-24.238 9.571-49.65 9.571-75.837 0-38.31-27.22-70.265-63.378-77.575-8.159-1.648-15.769 4.656-15.769 12.981v268.822c0 28 22.698 50.698 50.698 50.698h89.895c40.097 0 72.603-32.505 72.603-72.603.006-36.158-21.34-67.324-52.115-81.595Zm-93.747 94.129c-10.412 0-17.275-10.806-12.899-20.255 7.654-16.521 24.384-27.982 43.791-27.982 19.404 0 36.135 11.461 43.788 27.982 4.379 9.447-2.484 20.255-12.898 20.255H216.73Z" fill="#fff"/></svg>